<?xml version="1.0" standalone="no"?>
<!DOCTYPE svg PUBLIC "-//W3C//DTD SVG 20010904//EN"
 "http://www.w3.org/TR/2001/REC-SVG-20010904/DTD/svg10.dtd">
<svg version="1.0" xmlns="http://www.w3.org/2000/svg"
 width="485.000000pt" height="485.000000pt" viewBox="0 0 485.000000 485.000000"
 preserveAspectRatio="xMidYMid meet">
<metadata>
Created by potrace 1.11, written by Peter Selinger 2001-2013
</metadata>
<g transform="translate(0.000000,485.000000) scale(0.100000,-0.100000)"
fill="#000000" stroke="none">
<path d="M320 4443 l0 -406 137 -171 c76 -94 145 -180 155 -191 29 -35 187
-232 438 -545 134 -168 247 -307 250 -310 3 -3 21 -25 40 -50 19 -25 37 -47
40 -50 3 -3 124 -153 270 -335 302 -377 340 -425 385 -480 18 -22 67 -83 109
-135 42 -52 82 -102 89 -110 7 -8 34 -42 60 -75 27 -33 54 -67 60 -75 7 -8 96
-118 197 -245 215 -268 212 -264 225 -279 20 -22 121 -151 128 -162 5 -8 -155
-11 -586 -10 l-592 1 -1 390 c-1 215 -2 396 -3 403 -1 9 -148 12 -701 12
l-700 0 0 -810 0 -810 2105 0 2105 0 0 406 0 406 -362 461 c-200 254 -368 469
-375 477 -30 38 -321 409 -344 440 -15 19 -35 45 -45 56 -11 12 -30 36 -44 54
-30 39 -212 272 -243 311 -12 15 -33 42 -47 60 -14 18 -38 49 -55 69 -16 20
-41 52 -55 70 -14 18 -45 59 -70 90 -25 31 -57 72 -72 91 -27 35 -202 258
-285 364 -26 33 -50 62 -53 65 -3 3 -17 21 -30 40 -13 19 -27 37 -30 40 -4 3
-26 30 -49 60 -69 89 -92 119 -161 205 -36 45 -76 97 -90 115 -14 18 -46 60
-72 93 -27 33 -48 61 -48 63 0 2 253 2 563 1 l562 -2 2 -390 c0 -214 1 -396 2
-402 1 -10 153 -13 701 -13 l700 0 0 810 0 810 -2105 0 -2105 0 0 -407z"/>
</g>
</svg>
