<?xml version="1.0" encoding="UTF-8" standalone="no"?>
<!-- Created with Inkscape (http://www.inkscape.org/) -->

<svg
   xmlns:osb="http://www.openswatchbook.org/uri/2009/osb"
   xmlns:dc="http://purl.org/dc/elements/1.1/"
   xmlns:cc="http://creativecommons.org/ns#"
   xmlns:rdf="http://www.w3.org/1999/02/22-rdf-syntax-ns#"
   xmlns:svg="http://www.w3.org/2000/svg"
   xmlns="http://www.w3.org/2000/svg"
   xmlns:xlink="http://www.w3.org/1999/xlink"
   xmlns:sodipodi="http://sodipodi.sourceforge.net/DTD/sodipodi-0.dtd"
   xmlns:inkscape="http://www.inkscape.org/namespaces/inkscape"
   width="94mm"
   height="66mm"
   viewBox="0 0 333.07068 233.85813"
   id="svg2"
   version="1.1"
   inkscape:version="0.91 r13725"
   sodipodi:docname="sufr-logo.svg">
  <sodipodi:namedview
     id="base"
     pagecolor="#ffffff"
     bordercolor="#666666"
     borderopacity="1.0"
     inkscape:pageopacity="0.0"
     inkscape:pageshadow="2"
     inkscape:zoom="1.01"
     inkscape:cx="198.62516"
     inkscape:cy="331.03253"
     inkscape:document-units="px"
     inkscape:current-layer="text4144"
     showgrid="false"
     inkscape:window-width="1920"
     inkscape:window-height="1163"
     inkscape:window-x="0"
     inkscape:window-y="18"
     inkscape:window-maximized="0"
     width="296mm"
     borderlayer="false" />
  <defs
     id="defs4">
    <linearGradient
       id="linearGradient5653"
       osb:paint="solid">
      <stop
         style="stop-color:#f56334;stop-opacity:1;"
         offset="0"
         id="stop5655" />
    </linearGradient>
    <linearGradient
       id="linearGradient4185"
       osb:paint="solid">
      <stop
         style="stop-color:#ff6e3e;stop-opacity:1;"
         offset="0"
         id="stop4187" />
    </linearGradient>
    <linearGradient
       inkscape:collect="always"
       xlink:href="#linearGradient5653"
       id="linearGradient5657"
       x1="97.126232"
       y1="788.48492"
       x2="439.79062"
       y2="788.48492"
       gradientUnits="userSpaceOnUse" />
  </defs>
  <metadata
     id="metadata7">
    <rdf:RDF>
      <cc:Work
         rdf:about="">
        <dc:format>image/svg+xml</dc:format>
        <dc:type
           rdf:resource="http://purl.org/dc/dcmitype/StillImage" />
        <dc:title></dc:title>
      </cc:Work>
    </rdf:RDF>
  </metadata>
  <g
     id="layer1"
     inkscape:groupmode="layer"
     inkscape:label="Layer 1"
     transform="translate(0,-818.50395)">
    <g
       id="text4144"
       style="font-style:normal;font-variant:normal;font-weight:500;font-stretch:normal;font-size:38.54383087px;line-height:125%;font-family:Russian;-inkscape-font-specification:'Russian Medium';letter-spacing:0px;word-spacing:0px;fill:#000000;fill-opacity:1;stroke:none;stroke-width:1px;stroke-linecap:butt;stroke-linejoin:miter;stroke-opacity:1"
       transform="matrix(0.96346456,0,0,1.0379209,92.079207,-332.67327)">
      <g
         id="g4167"
         transform="translate(-191.14187,434.98964)"
         style="fill:url(#linearGradient5657);fill-opacity:1;stroke:#fbc042;stroke-opacity:0">
        <path
           d="m 232.58801,883.00951 c 0,0 0,-28.52832 0,-28.52832 0,0 -72.96272,-127.05297 -72.96272,-127.05297 0,0 35.15496,6.62732 35.15496,6.62732 0,0 0,30.5847 0,30.5847 0,0 37.80776,4.86727 37.80776,4.86727 0,0 0,-56.85289 0,-56.85289 0,0 -134.961778,-33.56871 -134.961778,-33.56871 0,0 0,36.65441 0,36.65441 0,0 90.911008,140.96997 90.911008,140.96997 0,0 -38.12168,1.92908 -38.12168,1.92908 0,0 0,-33.23684 0,-33.23684 0,0 -52.789328,-0.48445 -52.789328,-0.48445 0,0 0,73.04699 0,73.04699 0,0 134.961778,-14.95556 134.961778,-14.95556 0,0 0,0 0,0"
           style="font-style:normal;font-variant:normal;font-weight:500;font-stretch:normal;font-size:173.44723511px;font-family:Russian;-inkscape-font-specification:'Russian Medium';fill:url(#linearGradient5657);fill-opacity:1;stroke:#fbc042;stroke-opacity:0"
           id="path4151"
           inkscape:connector-curvature="0" />
        <path
           d="m 328.05325,861.6914 c 0,0 0,-125.29194 0,-125.29194 0,0 -23.72587,-5.90128 -23.72587,-5.90128 0,0 0,120.35277 0,120.35277 0,0 -26.90064,1.36126 -26.90064,1.36126 0,0 0,-128.40496 0,-128.40496 0,0 -30.75828,-7.65043 -30.75828,-7.65043 0,0 0,151.45213 0,151.45213 0,3.82255 1.65407,6.95875 4.92676,9.38233 3.07366,2.2762 6.78275,3.16037 11.09513,2.6825 0,0 53.94586,-5.97792 53.94586,-5.97792 2.93237,-0.32495 5.60027,-1.66697 8.01373,-4.00745 2.27564,-2.3008 3.40331,-4.95963 3.40331,-7.99701 0,0 0,0 0,0"
           style="font-style:normal;font-variant:normal;font-weight:500;font-stretch:normal;font-size:173.44723511px;font-family:Russian;-inkscape-font-specification:'Russian Medium';fill:url(#linearGradient5657);fill-opacity:1;stroke:#fbc042;stroke-opacity:0"
           id="path4153"
           inkscape:connector-curvature="0" />
        <path
           d="m 391.50033,790.23631 c 0,0 0,-28.44029 0,-28.44029 0,-2.43774 -0.74352,-4.82297 -2.24113,-7.17229 -1.66388,-2.22623 -3.5375,-3.60471 -5.62799,-4.12287 0,0 -36.13494,-8.95667 -36.13494,-8.95667 -2.81624,-0.69806 -5.23016,-0.25236 -7.22471,1.35846 -2.11794,1.71048 -3.18613,4.05559 -3.18613,7.02046 0,0 0,121.82437 0,121.82437 0,0 20.11404,-2.2462 20.11404,-2.2462 0,0 0,-21.02546 0,-21.02546 0,0 0,-32.58945 0,-32.58945 0,0 33.74355,1.41259 33.74355,1.41259 0,0 0,-16.55169 0,-16.55169 0,0 -33.74355,-3.18308 -33.74355,-3.18308 0,0 0,-32.58945 0,-32.58945 0,0 18.03625,3.38464 18.03625,3.38464 0,0 0,19.79706 0,19.79706 0,0 16.26461,2.07987 16.26461,2.07987 0,0 0,0 0,0"
           style="font-style:normal;font-variant:normal;font-weight:500;font-stretch:normal;font-size:173.44723511px;font-family:Russian;-inkscape-font-specification:'Russian Medium';fill:url(#linearGradient5657);fill-opacity:1;stroke:#fbc042;stroke-opacity:0"
           id="path4155"
           inkscape:connector-curvature="0" />
        <path
           d="m 439.31005,860.33171 c 0,0 -11.60973,-40.41524 -11.60973,-40.41524 0,0 3.27295,0.12435 3.27295,0.12435 1.57977,0.06 2.94728,-0.70833 4.10861,-2.29433 1.09686,-1.49796 1.64197,-3.36355 1.64197,-5.60584 0,0 0,-40.36122 0,-40.36122 0,-2.24229 -0.54511,-4.2637 -1.64197,-6.07521 -1.16133,-1.91797 -2.52884,-3.07723 -4.10861,-3.46881 0,0 -33.19092,-8.22694 -33.19092,-8.22694 0,0 0,110.96078 0,110.96078 0,0 14.17271,-1.58272 14.17271,-1.58272 0,0 0,-44.06825 0,-44.06825 0,0 3.84043,0.1459 3.84043,0.1459 0,0 11.90483,42.16402 11.90483,42.16402 0,0 11.60973,-1.29649 11.60973,-1.29649 0,0 0,0 0,0 m -14.42684,-57.3514 c 0,0 -12.92815,-1.26401 -12.92815,-1.26401 0,0 0,-26.46628 0,-26.46628 0,0 12.92815,2.42607 12.92815,2.42607 0,0 0,25.30422 0,25.30422 0,0 0,0 0,0"
           style="font-style:normal;font-variant:normal;font-weight:500;font-stretch:normal;font-size:173.44723511px;font-family:Russian;-inkscape-font-specification:'Russian Medium';fill:url(#linearGradient5657);fill-opacity:1;stroke:#fbc042;stroke-opacity:0"
           id="path4157"
           inkscape:connector-curvature="0" />
      </g>
    </g>
  </g>
</svg>
